<mxfile host="app.diagrams.net" modified="2022-02-10T11:59:25.506Z" agent="5.0 (Windows NT 10.0; Win64; x64) AppleWebKit/537.36 (KHTML, like Gecko) Chrome/97.0.4692.71 Safari/537.36" etag="hq3X9PQ7QG6Idn5Nhwap" version="15.9.6" type="github">
  <diagram id="uhLY-ic7RiXZPrAS8pwG" name="第 1 页">
    <mxGraphModel dx="1902" dy="685" grid="0" gridSize="10" guides="1" tooltips="1" connect="1" arrows="1" fold="1" page="0" pageScale="1" pageWidth="827" pageHeight="1169" math="0" shadow="0">
      <root>
        <mxCell id="0" />
        <mxCell id="1" parent="0" />
        <mxCell id="Fv4V9yx8pxaX2ro8pe0i-17" value="" style="whiteSpace=wrap;html=1;sketch=1;hachureGap=4;fontFamily=Architects Daughter;fontSource=https%3A%2F%2Ffonts.googleapis.com%2Fcss%3Ffamily%3DArchitects%2BDaughter;fontSize=20;" vertex="1" parent="1">
          <mxGeometry x="-122" y="656" width="796" height="808" as="geometry" />
        </mxCell>
        <mxCell id="Fv4V9yx8pxaX2ro8pe0i-11" value="" style="edgeStyle=none;curved=1;rounded=0;sketch=1;hachureGap=4;orthogonalLoop=1;jettySize=auto;html=1;fontFamily=Architects Daughter;fontSource=https%3A%2F%2Ffonts.googleapis.com%2Fcss%3Ffamily%3DArchitects%2BDaughter;fontSize=16;endArrow=open;startSize=14;endSize=14;sourcePerimeterSpacing=8;targetPerimeterSpacing=8;" edge="1" parent="1" source="Fv4V9yx8pxaX2ro8pe0i-5" target="Fv4V9yx8pxaX2ro8pe0i-10">
          <mxGeometry relative="1" as="geometry" />
        </mxCell>
        <mxCell id="Fv4V9yx8pxaX2ro8pe0i-5" value="根据 ids 查询订单&lt;br&gt;（单个操作，加锁）" style="rounded=1;whiteSpace=wrap;html=1;absoluteArcSize=1;arcSize=14;strokeWidth=2;sketch=1;hachureGap=4;fontFamily=Architects Daughter;fontSource=https%3A%2F%2Ffonts.googleapis.com%2Fcss%3Ffamily%3DArchitects%2BDaughter;fontSize=20;" vertex="1" parent="1">
          <mxGeometry x="3.5" y="291" width="191.5" height="76" as="geometry" />
        </mxCell>
        <mxCell id="Fv4V9yx8pxaX2ro8pe0i-7" value="" style="edgeStyle=none;curved=1;rounded=0;sketch=1;hachureGap=4;orthogonalLoop=1;jettySize=auto;html=1;fontFamily=Architects Daughter;fontSource=https%3A%2F%2Ffonts.googleapis.com%2Fcss%3Ffamily%3DArchitects%2BDaughter;fontSize=16;endArrow=open;startSize=14;endSize=14;sourcePerimeterSpacing=8;targetPerimeterSpacing=8;" edge="1" parent="1" source="Fv4V9yx8pxaX2ro8pe0i-6" target="Fv4V9yx8pxaX2ro8pe0i-5">
          <mxGeometry relative="1" as="geometry" />
        </mxCell>
        <mxCell id="Fv4V9yx8pxaX2ro8pe0i-6" value="一键拆分" style="strokeWidth=2;html=1;shape=mxgraph.flowchart.start_2;whiteSpace=wrap;sketch=1;hachureGap=4;fontFamily=Architects Daughter;fontSource=https%3A%2F%2Ffonts.googleapis.com%2Fcss%3Ffamily%3DArchitects%2BDaughter;fontSize=20;" vertex="1" parent="1">
          <mxGeometry x="20" y="130" width="150" height="98" as="geometry" />
        </mxCell>
        <mxCell id="Fv4V9yx8pxaX2ro8pe0i-14" value="异常" style="edgeStyle=none;curved=1;rounded=0;sketch=1;hachureGap=4;orthogonalLoop=1;jettySize=auto;html=1;fontFamily=Architects Daughter;fontSource=https%3A%2F%2Ffonts.googleapis.com%2Fcss%3Ffamily%3DArchitects%2BDaughter;fontSize=16;endArrow=open;startSize=14;endSize=14;sourcePerimeterSpacing=8;targetPerimeterSpacing=8;" edge="1" parent="1" source="Fv4V9yx8pxaX2ro8pe0i-10" target="Fv4V9yx8pxaX2ro8pe0i-12">
          <mxGeometry relative="1" as="geometry" />
        </mxCell>
        <mxCell id="Fv4V9yx8pxaX2ro8pe0i-16" value="" style="edgeStyle=none;curved=1;rounded=0;sketch=1;hachureGap=4;orthogonalLoop=1;jettySize=auto;html=1;fontFamily=Architects Daughter;fontSource=https%3A%2F%2Ffonts.googleapis.com%2Fcss%3Ffamily%3DArchitects%2BDaughter;fontSize=16;endArrow=open;startSize=14;endSize=14;sourcePerimeterSpacing=8;targetPerimeterSpacing=8;" edge="1" parent="1" source="Fv4V9yx8pxaX2ro8pe0i-10" target="Fv4V9yx8pxaX2ro8pe0i-15">
          <mxGeometry relative="1" as="geometry" />
        </mxCell>
        <mxCell id="Fv4V9yx8pxaX2ro8pe0i-10" value="判断订单状态" style="strokeWidth=2;html=1;shape=mxgraph.flowchart.decision;whiteSpace=wrap;sketch=1;hachureGap=4;fontFamily=Architects Daughter;fontSource=https%3A%2F%2Ffonts.googleapis.com%2Fcss%3Ffamily%3DArchitects%2BDaughter;fontSize=20;" vertex="1" parent="1">
          <mxGeometry x="0.25" y="421" width="198" height="95" as="geometry" />
        </mxCell>
        <mxCell id="Fv4V9yx8pxaX2ro8pe0i-12" value="抛出异常" style="strokeWidth=2;html=1;shape=mxgraph.flowchart.terminator;whiteSpace=wrap;sketch=1;hachureGap=4;fontFamily=Architects Daughter;fontSource=https%3A%2F%2Ffonts.googleapis.com%2Fcss%3Ffamily%3DArchitects%2BDaughter;fontSize=20;" vertex="1" parent="1">
          <mxGeometry x="331" y="437.75" width="135" height="61.5" as="geometry" />
        </mxCell>
        <mxCell id="Fv4V9yx8pxaX2ro8pe0i-21" value="" style="edgeStyle=none;curved=1;rounded=0;sketch=1;hachureGap=4;orthogonalLoop=1;jettySize=auto;html=1;fontFamily=Architects Daughter;fontSource=https%3A%2F%2Ffonts.googleapis.com%2Fcss%3Ffamily%3DArchitects%2BDaughter;fontSize=16;endArrow=open;startSize=14;endSize=14;sourcePerimeterSpacing=8;targetPerimeterSpacing=8;" edge="1" parent="1" source="Fv4V9yx8pxaX2ro8pe0i-15" target="Fv4V9yx8pxaX2ro8pe0i-20">
          <mxGeometry relative="1" as="geometry" />
        </mxCell>
        <mxCell id="Fv4V9yx8pxaX2ro8pe0i-15" value="根据订单 id 查询子单" style="rounded=1;whiteSpace=wrap;html=1;absoluteArcSize=1;arcSize=14;strokeWidth=2;sketch=1;hachureGap=4;fontFamily=Architects Daughter;fontSource=https%3A%2F%2Ffonts.googleapis.com%2Fcss%3Ffamily%3DArchitects%2BDaughter;fontSize=20;" vertex="1" parent="1">
          <mxGeometry x="-13" y="566" width="239.25" height="60" as="geometry" />
        </mxCell>
        <mxCell id="Fv4V9yx8pxaX2ro8pe0i-18" value="循环子单" style="text;html=1;strokeColor=none;fillColor=none;align=center;verticalAlign=middle;whiteSpace=wrap;rounded=0;sketch=1;hachureGap=4;fontFamily=Architects Daughter;fontSource=https%3A%2F%2Ffonts.googleapis.com%2Fcss%3Ffamily%3DArchitects%2BDaughter;fontSize=20;" vertex="1" parent="1">
          <mxGeometry x="454" y="661" width="106" height="30" as="geometry" />
        </mxCell>
        <mxCell id="Fv4V9yx8pxaX2ro8pe0i-23" value="yes" style="edgeStyle=none;curved=1;rounded=0;sketch=1;hachureGap=4;orthogonalLoop=1;jettySize=auto;html=1;fontFamily=Architects Daughter;fontSource=https%3A%2F%2Ffonts.googleapis.com%2Fcss%3Ffamily%3DArchitects%2BDaughter;fontSize=16;endArrow=open;startSize=14;endSize=14;sourcePerimeterSpacing=8;targetPerimeterSpacing=8;" edge="1" parent="1" source="Fv4V9yx8pxaX2ro8pe0i-20" target="Fv4V9yx8pxaX2ro8pe0i-22">
          <mxGeometry relative="1" as="geometry" />
        </mxCell>
        <mxCell id="Fv4V9yx8pxaX2ro8pe0i-25" value="" style="edgeStyle=none;curved=1;rounded=0;sketch=1;hachureGap=4;orthogonalLoop=1;jettySize=auto;html=1;fontFamily=Architects Daughter;fontSource=https%3A%2F%2Ffonts.googleapis.com%2Fcss%3Ffamily%3DArchitects%2BDaughter;fontSize=16;endArrow=open;startSize=14;endSize=14;sourcePerimeterSpacing=8;targetPerimeterSpacing=8;" edge="1" parent="1" source="Fv4V9yx8pxaX2ro8pe0i-20" target="Fv4V9yx8pxaX2ro8pe0i-24">
          <mxGeometry relative="1" as="geometry" />
        </mxCell>
        <mxCell id="Fv4V9yx8pxaX2ro8pe0i-20" value="sto.size == 1?" style="strokeWidth=2;html=1;shape=mxgraph.flowchart.decision;whiteSpace=wrap;sketch=1;hachureGap=4;fontFamily=Architects Daughter;fontSource=https%3A%2F%2Ffonts.googleapis.com%2Fcss%3Ffamily%3DArchitects%2BDaughter;fontSize=20;" vertex="1" parent="1">
          <mxGeometry x="5.63" y="691" width="202" height="81" as="geometry" />
        </mxCell>
        <mxCell id="Fv4V9yx8pxaX2ro8pe0i-22" value="递交时未进行合并操作" style="strokeWidth=2;html=1;shape=mxgraph.flowchart.terminator;whiteSpace=wrap;sketch=1;hachureGap=4;fontFamily=Architects Daughter;fontSource=https%3A%2F%2Ffonts.googleapis.com%2Fcss%3Ffamily%3DArchitects%2BDaughter;fontSize=20;" vertex="1" parent="1">
          <mxGeometry x="290" y="707" width="235" height="63" as="geometry" />
        </mxCell>
        <mxCell id="Fv4V9yx8pxaX2ro8pe0i-27" value="" style="edgeStyle=none;curved=1;rounded=0;sketch=1;hachureGap=4;orthogonalLoop=1;jettySize=auto;html=1;fontFamily=Architects Daughter;fontSource=https%3A%2F%2Ffonts.googleapis.com%2Fcss%3Ffamily%3DArchitects%2BDaughter;fontSize=16;endArrow=open;startSize=14;endSize=14;sourcePerimeterSpacing=8;targetPerimeterSpacing=8;" edge="1" parent="1" source="Fv4V9yx8pxaX2ro8pe0i-24" target="Fv4V9yx8pxaX2ro8pe0i-26">
          <mxGeometry relative="1" as="geometry" />
        </mxCell>
        <mxCell id="Fv4V9yx8pxaX2ro8pe0i-24" value="跳过第一个sto" style="rounded=1;whiteSpace=wrap;html=1;absoluteArcSize=1;arcSize=14;strokeWidth=2;sketch=1;hachureGap=4;fontFamily=Architects Daughter;fontSource=https%3A%2F%2Ffonts.googleapis.com%2Fcss%3Ffamily%3DArchitects%2BDaughter;fontSize=20;" vertex="1" parent="1">
          <mxGeometry x="-4.75" y="822" width="231" height="50" as="geometry" />
        </mxCell>
        <mxCell id="Fv4V9yx8pxaX2ro8pe0i-29" value="" style="edgeStyle=none;curved=1;rounded=0;sketch=1;hachureGap=4;orthogonalLoop=1;jettySize=auto;html=1;fontFamily=Architects Daughter;fontSource=https%3A%2F%2Ffonts.googleapis.com%2Fcss%3Ffamily%3DArchitects%2BDaughter;fontSize=16;endArrow=open;startSize=14;endSize=14;sourcePerimeterSpacing=8;targetPerimeterSpacing=8;" edge="1" parent="1" source="Fv4V9yx8pxaX2ro8pe0i-26" target="Fv4V9yx8pxaX2ro8pe0i-28">
          <mxGeometry relative="1" as="geometry" />
        </mxCell>
        <mxCell id="Fv4V9yx8pxaX2ro8pe0i-26" value="根据 trade_id 查询订单&lt;br&gt;插入一条新的 sto&lt;br&gt;取自增主键作为新订单的 trade_id" style="rounded=1;whiteSpace=wrap;html=1;absoluteArcSize=1;arcSize=14;strokeWidth=2;sketch=1;hachureGap=4;fontFamily=Architects Daughter;fontSource=https%3A%2F%2Ffonts.googleapis.com%2Fcss%3Ffamily%3DArchitects%2BDaughter;fontSize=20;" vertex="1" parent="1">
          <mxGeometry x="-59" y="927" width="344" height="90" as="geometry" />
        </mxCell>
        <mxCell id="Fv4V9yx8pxaX2ro8pe0i-31" value="" style="edgeStyle=none;curved=1;rounded=0;sketch=1;hachureGap=4;orthogonalLoop=1;jettySize=auto;html=1;fontFamily=Architects Daughter;fontSource=https%3A%2F%2Ffonts.googleapis.com%2Fcss%3Ffamily%3DArchitects%2BDaughter;fontSize=16;endArrow=open;startSize=14;endSize=14;sourcePerimeterSpacing=8;targetPerimeterSpacing=8;" edge="1" parent="1" source="Fv4V9yx8pxaX2ro8pe0i-28" target="Fv4V9yx8pxaX2ro8pe0i-30">
          <mxGeometry relative="1" as="geometry" />
        </mxCell>
        <mxCell id="Fv4V9yx8pxaX2ro8pe0i-34" value="否" style="edgeLabel;html=1;align=center;verticalAlign=middle;resizable=0;points=[];fontSize=20;fontFamily=Architects Daughter;" vertex="1" connectable="0" parent="Fv4V9yx8pxaX2ro8pe0i-31">
          <mxGeometry x="-0.5167" y="2" relative="1" as="geometry">
            <mxPoint as="offset" />
          </mxGeometry>
        </mxCell>
        <mxCell id="Fv4V9yx8pxaX2ro8pe0i-37" value="" style="edgeStyle=none;curved=1;rounded=0;sketch=1;hachureGap=4;orthogonalLoop=1;jettySize=auto;html=1;fontFamily=Architects Daughter;fontSource=https%3A%2F%2Ffonts.googleapis.com%2Fcss%3Ffamily%3DArchitects%2BDaughter;fontSize=16;endArrow=open;startSize=14;endSize=14;sourcePerimeterSpacing=8;targetPerimeterSpacing=8;" edge="1" parent="1" source="Fv4V9yx8pxaX2ro8pe0i-28" target="Fv4V9yx8pxaX2ro8pe0i-36">
          <mxGeometry relative="1" as="geometry" />
        </mxCell>
        <mxCell id="Fv4V9yx8pxaX2ro8pe0i-28" value="如果开了赠品拆分和单发件拆分配置" style="strokeWidth=2;html=1;shape=mxgraph.flowchart.decision;whiteSpace=wrap;sketch=1;hachureGap=4;fontFamily=Architects Daughter;fontSource=https%3A%2F%2Ffonts.googleapis.com%2Fcss%3Ffamily%3DArchitects%2BDaughter;fontSize=20;" vertex="1" parent="1">
          <mxGeometry x="7.25" y="1068" width="211.5" height="107" as="geometry" />
        </mxCell>
        <mxCell id="Fv4V9yx8pxaX2ro8pe0i-33" value="" style="edgeStyle=none;curved=1;rounded=0;sketch=1;hachureGap=4;orthogonalLoop=1;jettySize=auto;html=1;fontFamily=Architects Daughter;fontSource=https%3A%2F%2Ffonts.googleapis.com%2Fcss%3Ffamily%3DArchitects%2BDaughter;fontSize=16;endArrow=open;startSize=14;endSize=14;sourcePerimeterSpacing=8;targetPerimeterSpacing=8;" edge="1" parent="1" source="Fv4V9yx8pxaX2ro8pe0i-30" target="Fv4V9yx8pxaX2ro8pe0i-32">
          <mxGeometry relative="1" as="geometry" />
        </mxCell>
        <mxCell id="Fv4V9yx8pxaX2ro8pe0i-30" value="插入日志" style="rounded=1;whiteSpace=wrap;html=1;absoluteArcSize=1;arcSize=14;strokeWidth=2;sketch=1;hachureGap=4;fontFamily=Architects Daughter;fontSource=https%3A%2F%2Ffonts.googleapis.com%2Fcss%3Ffamily%3DArchitects%2BDaughter;fontSize=20;" vertex="1" parent="1">
          <mxGeometry x="-2.5000000000000044" y="1248" width="231" height="50" as="geometry" />
        </mxCell>
        <mxCell id="Fv4V9yx8pxaX2ro8pe0i-49" value="" style="edgeStyle=none;curved=1;rounded=0;sketch=1;hachureGap=4;orthogonalLoop=1;jettySize=auto;html=1;fontFamily=Architects Daughter;fontSource=https%3A%2F%2Ffonts.googleapis.com%2Fcss%3Ffamily%3DArchitects%2BDaughter;fontSize=16;endArrow=open;startSize=14;endSize=14;sourcePerimeterSpacing=8;targetPerimeterSpacing=8;" edge="1" parent="1" source="Fv4V9yx8pxaX2ro8pe0i-32" target="Fv4V9yx8pxaX2ro8pe0i-43">
          <mxGeometry relative="1" as="geometry" />
        </mxCell>
        <mxCell id="Fv4V9yx8pxaX2ro8pe0i-32" value="订单刷新（32|4？|2？）" style="rounded=1;whiteSpace=wrap;html=1;absoluteArcSize=1;arcSize=14;strokeWidth=2;sketch=1;hachureGap=4;fontFamily=Architects Daughter;fontSource=https%3A%2F%2Ffonts.googleapis.com%2Fcss%3Ffamily%3DArchitects%2BDaughter;fontSize=20;" vertex="1" parent="1">
          <mxGeometry x="5.630000000000001" y="1358" width="231" height="50" as="geometry" />
        </mxCell>
        <mxCell id="Fv4V9yx8pxaX2ro8pe0i-38" value="否" style="edgeStyle=none;curved=1;rounded=0;sketch=1;hachureGap=4;orthogonalLoop=1;jettySize=auto;html=1;fontFamily=Architects Daughter;fontSource=https%3A%2F%2Ffonts.googleapis.com%2Fcss%3Ffamily%3DArchitects%2BDaughter;fontSize=16;endArrow=open;startSize=14;endSize=14;sourcePerimeterSpacing=8;targetPerimeterSpacing=8;entryX=1;entryY=0.5;entryDx=0;entryDy=0;" edge="1" parent="1" source="Fv4V9yx8pxaX2ro8pe0i-36" target="Fv4V9yx8pxaX2ro8pe0i-30">
          <mxGeometry relative="1" as="geometry">
            <Array as="points">
              <mxPoint x="293" y="1228" />
            </Array>
          </mxGeometry>
        </mxCell>
        <mxCell id="Fv4V9yx8pxaX2ro8pe0i-41" value="是" style="edgeStyle=none;curved=1;rounded=0;sketch=1;hachureGap=4;orthogonalLoop=1;jettySize=auto;html=1;entryX=0.5;entryY=0;entryDx=0;entryDy=0;entryPerimeter=0;fontFamily=Architects Daughter;fontSource=https%3A%2F%2Ffonts.googleapis.com%2Fcss%3Ffamily%3DArchitects%2BDaughter;fontSize=16;endArrow=open;startSize=14;endSize=14;sourcePerimeterSpacing=8;targetPerimeterSpacing=8;" edge="1" parent="1" source="Fv4V9yx8pxaX2ro8pe0i-36" target="Fv4V9yx8pxaX2ro8pe0i-40">
          <mxGeometry relative="1" as="geometry">
            <Array as="points">
              <mxPoint x="498" y="1212" />
            </Array>
          </mxGeometry>
        </mxCell>
        <mxCell id="Fv4V9yx8pxaX2ro8pe0i-36" value="判断拆分结果&lt;br&gt;1.是否只包含赠品&lt;br&gt;2. 是否只包含非单发件" style="rounded=1;whiteSpace=wrap;html=1;absoluteArcSize=1;arcSize=14;strokeWidth=2;sketch=1;hachureGap=4;fontFamily=Architects Daughter;fontSource=https%3A%2F%2Ffonts.googleapis.com%2Fcss%3Ffamily%3DArchitects%2BDaughter;fontSize=20;" vertex="1" parent="1">
          <mxGeometry x="316" y="1075.5" width="257" height="99.5" as="geometry" />
        </mxCell>
        <mxCell id="Fv4V9yx8pxaX2ro8pe0i-40" value="抛出异常" style="strokeWidth=2;html=1;shape=mxgraph.flowchart.terminator;whiteSpace=wrap;sketch=1;hachureGap=4;fontFamily=Architects Daughter;fontSource=https%3A%2F%2Ffonts.googleapis.com%2Fcss%3Ffamily%3DArchitects%2BDaughter;fontSize=20;" vertex="1" parent="1">
          <mxGeometry x="437" y="1253" width="169" height="51" as="geometry" />
        </mxCell>
        <mxCell id="Fv4V9yx8pxaX2ro8pe0i-48" style="edgeStyle=none;curved=1;rounded=0;sketch=1;hachureGap=4;orthogonalLoop=1;jettySize=auto;html=1;fontFamily=Architects Daughter;fontSource=https%3A%2F%2Ffonts.googleapis.com%2Fcss%3Ffamily%3DArchitects%2BDaughter;fontSize=16;endArrow=open;startSize=14;endSize=14;sourcePerimeterSpacing=8;targetPerimeterSpacing=8;" edge="1" parent="1" source="Fv4V9yx8pxaX2ro8pe0i-42" target="Fv4V9yx8pxaX2ro8pe0i-46">
          <mxGeometry relative="1" as="geometry" />
        </mxCell>
        <mxCell id="Fv4V9yx8pxaX2ro8pe0i-42" value="刷新原订单&lt;br&gt;修改fenxiao_nick&lt;br&gt;插入日志" style="rounded=1;whiteSpace=wrap;html=1;absoluteArcSize=1;arcSize=14;strokeWidth=2;sketch=1;hachureGap=4;fontFamily=Architects Daughter;fontSource=https%3A%2F%2Ffonts.googleapis.com%2Fcss%3Ffamily%3DArchitects%2BDaughter;fontSize=20;" vertex="1" parent="1">
          <mxGeometry x="353" y="1513.5" width="255.37" height="88" as="geometry" />
        </mxCell>
        <mxCell id="Fv4V9yx8pxaX2ro8pe0i-44" value="" style="edgeStyle=none;curved=1;rounded=0;sketch=1;hachureGap=4;orthogonalLoop=1;jettySize=auto;html=1;fontFamily=Architects Daughter;fontSource=https%3A%2F%2Ffonts.googleapis.com%2Fcss%3Ffamily%3DArchitects%2BDaughter;fontSize=16;endArrow=open;startSize=14;endSize=14;sourcePerimeterSpacing=8;targetPerimeterSpacing=8;" edge="1" parent="1" source="Fv4V9yx8pxaX2ro8pe0i-43" target="Fv4V9yx8pxaX2ro8pe0i-42">
          <mxGeometry relative="1" as="geometry" />
        </mxCell>
        <mxCell id="Fv4V9yx8pxaX2ro8pe0i-45" value="是" style="edgeLabel;html=1;align=center;verticalAlign=middle;resizable=0;points=[];fontSize=20;fontFamily=Architects Daughter;" vertex="1" connectable="0" parent="Fv4V9yx8pxaX2ro8pe0i-44">
          <mxGeometry x="-0.5058" y="-1" relative="1" as="geometry">
            <mxPoint as="offset" />
          </mxGeometry>
        </mxCell>
        <mxCell id="Fv4V9yx8pxaX2ro8pe0i-47" value="" style="edgeStyle=none;curved=1;rounded=0;sketch=1;hachureGap=4;orthogonalLoop=1;jettySize=auto;html=1;fontFamily=Architects Daughter;fontSource=https%3A%2F%2Ffonts.googleapis.com%2Fcss%3Ffamily%3DArchitects%2BDaughter;fontSize=16;endArrow=open;startSize=14;endSize=14;sourcePerimeterSpacing=8;targetPerimeterSpacing=8;" edge="1" parent="1" source="Fv4V9yx8pxaX2ro8pe0i-43" target="Fv4V9yx8pxaX2ro8pe0i-46">
          <mxGeometry relative="1" as="geometry" />
        </mxCell>
        <mxCell id="Fv4V9yx8pxaX2ro8pe0i-43" value="是否生成新的sto" style="strokeWidth=2;html=1;shape=mxgraph.flowchart.decision;whiteSpace=wrap;sketch=1;hachureGap=4;fontFamily=Architects Daughter;fontSource=https%3A%2F%2Ffonts.googleapis.com%2Fcss%3Ffamily%3DArchitects%2BDaughter;fontSize=20;" vertex="1" parent="1">
          <mxGeometry x="13.249999999999998" y="1504" width="211.5" height="107" as="geometry" />
        </mxCell>
        <mxCell id="Fv4V9yx8pxaX2ro8pe0i-46" value="进行下一次 st 循环" style="strokeWidth=2;html=1;shape=mxgraph.flowchart.terminator;whiteSpace=wrap;sketch=1;hachureGap=4;fontFamily=Architects Daughter;fontSource=https%3A%2F%2Ffonts.googleapis.com%2Fcss%3Ffamily%3DArchitects%2BDaughter;fontSize=20;" vertex="1" parent="1">
          <mxGeometry x="16.5" y="1703" width="212" height="64" as="geometry" />
        </mxCell>
      </root>
    </mxGraphModel>
  </diagram>
</mxfile>
